<svg width="70" height="70" viewBox="0 0 70 70" fill="none" xmlns="http://www.w3.org/2000/svg">
<path d="M6.31458 57.0238C6.85708 57.8404 7.76999 58.3334 8.74999 58.3334H52.5C53.6667 58.3334 54.7225 57.6392 55.1804 56.5659L63.9304 36.1492C64.1221 35.7057 64.2004 35.2214 64.1583 34.7401C64.1161 34.2587 63.9547 33.7954 63.6888 33.392C63.4228 32.9886 63.0606 32.6578 62.6349 32.4293C62.2091 32.2008 61.7332 32.0819 61.25 32.0834H58.3333V23.3334C58.3333 20.1163 55.7171 17.5 52.5 17.5H33.0896L25.6346 11.6667H11.6667C8.44958 11.6667 5.83333 14.2829 5.83333 17.5V55.4167H5.85374C5.84724 55.9859 6.00744 56.5445 6.31458 57.0238V57.0238ZM52.5 23.3334V32.0834H17.5C16.3333 32.0834 15.2775 32.7775 14.8196 33.8509L11.6667 41.2096V23.3334H52.5Z" fill="#FF8A00"/>
</svg>
